Coordinates
version=1
nRows=8
nColumns=63
inDegrees=yes

Units are S.I. units (second, meters, Newtons, ...)
If the header above contains a line with 'inDegrees', this indicates whether rotational values are in degrees (yes) or radians (no).

endheader
time	pelvis_tilt	pelvis_list	pelvis_rotation	pelvis_tx	pelvis_ty	pelvis_tz	hip_flexion_r	hip_adduction_r	hip_rotation_r	knee_angle_r	knee_angle_r_beta	ankle_angle_r	subtalar_angle_r	mtp_angle_r	hip_flexion_l	hip_adduction_l	hip_rotation_l	knee_angle_l	knee_angle_l_beta	ankle_angle_l	subtalar_angle_l	mtp_angle_l	L5_S1_Flex_Ext	L5_S1_Lat_Bending	L5_S1_axial_rotation	L4_L5_Flex_Ext	L4_L5_Lat_Bending	L4_L5_axial_rotation	L3_L4_Flex_Ext	L3_L4_Lat_Bending	L3_L4_axial_rotation	L2_L3_Flex_Ext	L2_L3_Lat_Bending	L2_L3_axial_rotation	L1_L2_Flex_Ext	L1_L2_Lat_Bending	L1_L2_axial_rotation	L1_T12_Flex_Ext	L1_T12_Lat_Bending	L1_T12_axial_rotation	Abs_r3	Abs_r2	Abs_r1	Abs_t1	Abs_t2	neck_flexion	neck_bending	neck_rotation	arm_flex_r	arm_add_r	arm_rot_r	elbow_flex_r	pro_sup_r	wrist_flex_r	wrist_dev_r	arm_flex_l	arm_add_l	arm_rot_l	elbow_flex_l	pro_sup_l	wrist_flex_l	wrist_dev_l
      5.01666667	     -1.20994389	     -1.43922871	     74.40108686	      0.19566039	      0.91819666	      0.51956688	      9.15400917	      4.72420737	     -1.19026037	     22.15311684	      0.38664483	     46.71514225	      2.78104125	      0.00000000	      6.38448336	     -2.69480799	     -2.02438913	     19.60898934	      0.34224143	     47.82942216	      7.61654512	      0.00000000	     -0.09613878	      0.47348815	     -0.40331916	     -0.17853933	      0.62973924	     -0.42852660	     -0.15794640	      1.15123909	     -0.42852660	     -0.10987701	      1.15123909	     -0.35290426	     -0.08927447	      0.96553704	     -0.32769682	     -0.05493370	      0.73343315	     -0.30248937	     -0.68670969	      5.35619267	     -2.24314016	      0.00000000	      0.00000000	     21.52493670	     -2.25194765	     -2.54302361	      0.96794892	    -17.58621700	     55.60960200	     18.91106652	     45.88838023	    -11.69477057	     -5.33235778	     11.15739329	     -7.51550501	    154.69346990	      4.40843340	      3.37846999	    -12.48420019	    -11.21538347
      5.03333333	     -1.27964044	     -1.56214686	     74.26286980	      0.19602771	      0.91801001	      0.52075054	      9.41520559	      4.83767004	     -0.60037749	     22.23651811	      0.38810046	     46.50990937	      2.09082197	      0.00000000	      6.62430795	     -2.84530654	     -2.98874192	     19.77387085	      0.34511915	     47.91378372	      8.52772533	      0.00000000	     -0.07922692	      0.46203712	     -0.41626149	     -0.14713231	      0.61450936	     -0.44227783	     -0.13016190	      1.12339704	     -0.44227783	     -0.09054844	      1.12339704	     -0.36422880	     -0.07357012	      0.94218609	     -0.33821246	     -0.04527026	      0.71569549	     -0.31219612	     -0.56590995	      5.22665626	     -2.31512152	      0.00000000	      0.00000000	     21.73819448	     -2.11772754	     -2.79811190	      1.31296062	    -17.51394250	     56.53534907	     18.87331812	     44.55940935	    -11.63494813	     -5.98726090	     11.06862781	     -7.70816265	    154.86198432	      4.51344325	      3.45800111	    -13.45968529	    -11.73858789
      5.05000000	     -1.46836158	     -1.55608870	     74.38212585	      0.19613596	      0.91811052	      0.52173777	      9.59611399	      4.59423965	     -1.01566791	     22.42100031	      0.39132028	     46.56723112	      2.48299296	      0.00000000	      6.69193693	     -2.64370908	     -2.77824452	     19.68631790	      0.34359106	     47.71479377	      8.38141556	      0.00000000	     -0.07014857	      0.42599873	     -0.49415458	     -0.13027290	      0.56657832	     -0.52503924	     -0.11524708	      1.03577332	     -0.52503924	     -0.08017280	      1.03577332	     -0.43238526	     -0.06513996	      0.86869662	     -0.40150060	     -0.04008289	      0.65987204	     -0.37061594	     -0.50106420	      4.81898287	     -2.74833954	      0.00000000	      0.00000000	     21.71350304	     -1.96926935	     -3.30281240	      3.94792596	    -17.20730551	     74.83846717	     16.72863480	     26.53405849	    -10.69989799	     -9.81292375	     10.96186096	     -8.03783162	    154.19728717	      4.71262947	      3.55495139	    -14.10488168	    -12.27334115
      5.06666667	     -1.50729492	     -1.64345539	     74.31096034	      0.19618882	      0.91785740	      0.52254161	      9.84364399	      4.58748142	     -1.01606437	     22.63103433	      0.39498606	     46.59776355	      2.55571829	      0.00000000	      6.82542115	     -2.78931745	     -3.65106338	     19.73648987	      0.34446673	     47.83612039	      9.42271276	      0.00000000	     -0.05871955	      0.41828310	     -0.47205134	     -0.10904808	      0.55631652	     -0.50155455	     -0.09647036	      1.01701353	     -0.50155455	     -0.06711058	      1.01701353	     -0.41304492	     -0.05452698	      0.85296290	     -0.38354171	     -0.03355235	      0.64792052	     -0.35403850	     -0.41942790	      4.73170207	     -2.62540793	      0.00000000	      0.00000000	     21.75092959	     -2.21073951	     -4.03710556	      3.82434178	    -17.24802481	     73.03171292	     17.03825090	     27.88975875	    -10.66923185	    -10.06722727	     11.15071148	     -8.33806053	    150.04212134	      5.73405939	      4.76391973	    -14.50996933	    -13.39763504
      5.08333333	     -1.51921299	     -1.69191842	     74.35069549	      0.19581906	      0.91771471	      0.52313582	     10.04559520	      4.56466855	     -1.04998420	     22.87044100	      0.39916450	     46.63339079	      2.52252806	      0.00000000	      6.87316717	     -2.72306141	     -3.33855435	     19.66852187	      0.34328047	     47.73346189	      9.07260389	      0.00000000	     -0.05469111	      0.41723579	     -0.46539268	     -0.10156685	      0.55492361	     -0.49447973	     -0.08985202	      1.01446711	     -0.49447973	     -0.06250647	      1.01446711	     -0.40721860	     -0.05078616	      0.85082723	     -0.37813156	     -0.03125050	      0.64629824	     -0.34904451	     -0.39065311	      4.71985474	     -2.58837449	      0.00000000	      0.00000000	     21.71871604	     -2.43913511	     -4.53939215	      3.82429422	    -17.36206416	     72.31255979	     17.33237961	     28.15844219	    -10.80684778	    -10.31223556	     11.22870092	     -8.34432043	    149.00635050	      5.90547775	      5.98011419	    -15.28721938	    -13.32614602
      5.10000000	     -1.52157095	     -1.80620619	     74.20771709	      0.19612321	      0.91753650	      0.52366685	     10.29181456	      4.75033431	     -0.33870766	     23.05200314	      0.40233335	     46.46964748	      1.71514085	      0.00000000	      6.91032885	     -2.96604559	     -4.56990461	     19.58317742	      0.34179092	     47.87766460	     10.45127068	      0.00000000	     -0.03487214	      0.41528574	     -0.41198069	     -0.06476106	      0.55233004	     -0.43772949	     -0.05729145	      1.00972576	     -0.43772949	     -0.03985537	      1.00972576	     -0.36048311	     -0.03238227	      0.84685069	     -0.33473431	     -0.01992594	      0.64327762	     -0.30898552	     -0.24908824	      4.69779539	     -2.29131302	      0.00000000	      0.00000000	     21.51424697	     -2.97325319	     -5.47442376	      3.89900393	    -17.34338374	     72.78225402	     17.29085943	     27.46017328	    -10.60329017	    -10.29053038	     11.30354517	     -8.22994614	    152.61315205	      5.46006012	      3.92971872	    -14.88453261	    -13.06492832
      5.11666667	     -1.55979651	     -1.80428444	     74.19146430	      0.19605326	      0.91753818	      0.52405805	     10.45683193	      4.71870381	     -0.28254901	     23.31423615	      0.40691018	     46.49385934	      1.59823288	      0.00000000	      6.84593214	     -2.90750874	     -4.58314558	     19.42594919	      0.33904677	     47.76858090	     10.42027504	      0.00000000	     -0.03519514	      0.41051656	     -0.40546910	     -0.06536089	      0.54598703	     -0.43081092	     -0.05782209	      0.99812997	     -0.43081092	     -0.04022452	      0.99812997	     -0.35478547	     -0.03268220	      0.83712537	     -0.32944365	     -0.02011050	      0.63589015	     -0.30410183	     -0.25139534	      4.64384544	     -2.25509751	      0.00000000	      0.00000000	     21.46645434	     -3.16402765	     -5.77002687	      3.98762145	    -17.32342710	     72.63791412	     17.24157477	     27.60403689	    -10.29230293	     -9.78889817	     11.38912258	     -8.23925465	    152.62610927	      5.44135112	      3.74995205	    -14.70234977	    -13.03463586
      5.13333333	     -1.60554370	     -1.82236382	     74.02129996	      0.19611425	      0.91751756	      0.52416241	     10.63899331	      4.64005327	     -0.33823898	     23.58793799	      0.41168718	     46.58923208	      1.88412131	      0.00000000	      6.71125904	     -2.86609860	     -4.89898224	     19.16697492	      0.33452682	     47.71372257	     10.58746383	      0.00000000	     -0.03005067	      0.40857689	     -0.37472350	     -0.05580710	      0.54340727	     -0.39814372	     -0.04937025	      0.99341386	     -0.39814372	     -0.03434491	      0.99341386	     -0.32788306	     -0.02790505	      0.83317000	     -0.30446284	     -0.01717095	      0.63288561	     -0.28104262	     -0.21464894	      4.62190352	     -2.08409968	      0.00000000	      0.00000000	     21.47058665	     -3.00709828	     -5.74612518	      3.91074957	    -17.36169299	     71.92519145	     17.27099356	     28.22036325	    -10.08347989	     -9.16226197	     11.48313562	     -8.28163447	    151.02693283	      5.74013716	      3.76981571	    -14.25807810	    -13.39787851
